HIERARCHY
ROOT ui
{
	 OFFSET 0 0 0
	 CHANNELS 3 XPosition YPosition Z Position
	 EndSite
	 {
	 OFFSET 0 -1 0
	 }
}
ROOT li
{
	 OFFSET 0 0 0
	 CHANNELS 3 XPosition YPosition Z Position
	 EndSite
	 {
	 OFFSET 0 -1 0
	 }
}
ROOT ul
{
	 OFFSET 0 0 0
	 CHANNELS 3 XPosition YPosition Z Position
	 EndSite
	 {
	 OFFSET 0 -1 0
	 }
}
ROOT ll
{
	 OFFSET 0 0 0
	 CHANNELS 3 XPosition YPosition Z Position
	 EndSite
	 {
	 OFFSET 0 -1 0
	 }
}
ROOT tt
{
	 OFFSET 0 0 0
	 CHANNELS 3 XPosition YPosition Z Position
	 EndSite
	 {
	 OFFSET 0 -1 0
	 }
}
ROOT tb
{
	 OFFSET 0 0 0
	 CHANNELS 3 XPosition YPosition Z Position
	 EndSite
	 {
	 OFFSET 0 -1 0
	 }
}
ROOT td
{
	 OFFSET 0 0 0
	 CHANNELS 3 XPosition YPosition Z Position
	 EndSite
	 {
	 OFFSET 0 -1 0
	 }
}
ROOT v
{
	 OFFSET 0 0 0
	 CHANNELS 3 XPosition YPosition Z Position
	 EndSite
	 {
	 OFFSET 0 -1 0
	 }
}
ROOT bn
{
	 OFFSET 0 0 0
	 CHANNELS 3 XPosition YPosition Z Position
	 EndSite
	 {
	 OFFSET 0 -1 0
	 }
}
MOTION
Frames: 10
Frame Time: 0.002
0.0028354780673980713	-2.812219858169556E-4	0		0.43535983276367185	-2.364453857421875	0		-1.111746826171875	-0.034954666137695316	0		-0.8567201538085938	-2.288675537109375	0		1.3402027587890626	-0.4917217102050781	0		2.997927734375	0.05853019332885742	0		4.49007958984375	0.13201426696777344	0		5.56450048828125	0.15523899841308594	0		-0.2696530456542969	5.92802734375	0		
0.017342960357666016	0.012788747787475586	0		0.43005130004882813	-2.3522626953125	0		-1.1133341064453126	-0.027279659271240233	0		-0.7921224975585938	-2.285031005859375	0		1.3464451904296875	-0.4859929504394531	0		2.97765576171875	0.0850737762451172	0		4.48454931640625	0.1378411102294922	0		5.5590341796875	0.1647001647949219	0		-0.26929754638671877	5.92941650390625	0		
-0.0071879010200500484	0.016414937973022462	0		0.4157450866699219	-2.34893017578125	0		-1.1229083251953125	-0.025499454498291017	0		-0.7944944458007812	-2.287470703125	0		1.3615738525390626	-0.49537738037109375	0		2.967815185546875	0.06451699829101562	0		4.48011474609375	0.14371614074707031	0		5.54949365234375	0.16229640197753906	0		-0.14977659606933594	5.94008740234375	0		
0.008096054077148437	4.803749918937683E-4	0		0.4404398193359375	-2.35514453125	0		-1.08543359375	-0.027412734985351562	0		-0.7967333984375	-2.289911376953125	0		1.3350272216796875	-0.4891211547851563	0		2.985334716796875	0.06262633514404296	0		4.482439453125	0.12657787322998046	0		5.5559267578125	0.15176596069335938	0		-0.14742820739746093	5.939416015625	0		
0.004652573108673096	-0.003161838054656982	0		0.413402099609375	-2.35256787109375	0		-1.1218212890625	-0.0262407169342041	0		-0.7988300170898438	-2.292348876953125	0		1.3413946533203125	-0.4963002014160156	0		2.99084814453125	0.05398111343383789	0		4.486181640625	0.13152452087402344	0		5.56140625	0.13837152099609376	0		-0.14509512329101562	5.93875830078125	0		
-0.005369202136993408	0.014324976921081542	0		0.41752886962890623	-2.34941943359375	0		-1.1092801513671875	-0.03679765701293945	0		-0.83163671875	-2.285306884765625	0		1.3450084228515624	-0.4943873596191406	0		2.97588818359375	0.07373622131347657	0		4.486919921875	0.1296328582763672	0		5.5514375	0.15535499572753905	0		-0.26095578002929687	5.92792578125	0		
0.013266481399536133	0.0023961920738220215	0		0.4296557312011719	-2.3563603515625	0		-1.116281005859375	-0.024050971984863282	0		-0.7944502563476562	-2.28932666015625	0		1.369734619140625	-0.49274658203125	0		2.98046240234375	0.056284954071044925	0		4.48775732421875	0.12786642456054687	0		5.55228125	0.1533240966796875	0		-0.12633621215820312	5.9482841796875	0		
0.011112698554992676	-0.002181425094604492	0		0.4430616149902344	-2.35528515625	0		-1.0824451904296875	-0.028941043853759764	0		-0.7940591430664062	-2.28976953125	0		1.33753564453125	-0.4931580810546875	0		3.0036015625	0.0686404800415039	0		4.4886943359375	0.12623004150390624	0		5.5490986328125	0.14351126098632813	0		-0.27058609008789064	5.91699658203125	0		
-0.002636061906814575	0.012462573051452637	0		0.4166281433105469	-2.35353564453125	0		-1.08144091796875	-0.02931229019165039	0		-0.7975780029296875	-2.294135009765625	0		1.380408203125	-0.49669207763671874	0		2.971645751953125	0.06896511840820313	0		4.4848583984375	0.13280451965332032	0		5.5501376953125	0.14179122924804688	0		-0.13603790283203124	5.93634912109375	0		
0.004264443874359131	-0.0011917259693145753	0		0.4500482177734375	-2.37070166015625	0		-1.1213802490234375	-0.03201334762573242	0		-0.7989326171875	-2.297517333984375	0		1.3453673095703125	-0.5009195861816407	0		2.979782470703125	0.06875422668457032	0		4.490861328125	0.12335307312011719	0		5.5554013671875	0.1481609344482422	0		-0.2520322875976562	5.9257216796875	0		
